<svg width="24" height="24" viewBox="0 0 24 24" fill="none" xmlns="http://www.w3.org/2000/svg">
<g clip-path="url(#clip0_1068850_119)">
<path d="M23.9765 7.05607C23.9202 5.78085 23.714 4.90416 23.4186 4.14449C23.1139 3.33812 22.645 2.61617 22.0308 2.01602C21.4306 1.40652 20.7039 0.932921 19.9069 0.632936C19.1428 0.337529 18.2707 0.131312 16.9955 0.0750879C15.7108 0.0141019 15.3029 0 12.0445 0C8.78602 0 8.37816 0.0141019 7.09819 0.0703262C5.82298 0.126551 4.94628 0.332951 4.1868 0.628174C3.38024 0.932922 2.6583 1.40176 2.05815 2.01602C1.44865 2.61617 0.975233 3.34288 0.675065 4.13991C0.379659 4.90416 0.173442 5.77609 0.117217 7.0513C0.0562314 8.33604 0.0421295 8.7439 0.0421295 12.0023C0.0421295 15.2608 0.0562314 15.6686 0.112456 16.9486C0.16868 18.2238 0.37508 19.1005 0.670487 19.8602C0.975233 20.6666 1.44865 21.3885 2.05815 21.9887C2.6583 22.5982 3.385 23.0718 4.18203 23.3718C4.94628 23.6672 5.81822 23.8734 7.09361 23.9296C8.3734 23.986 8.78144 23.9999 12.0399 23.9999C15.2983 23.9999 15.7062 23.986 16.9862 23.9296C18.2614 23.8734 19.1381 23.6672 19.8976 23.3718C21.5105 22.7482 22.7857 21.4729 23.4093 19.8602C23.7045 19.096 23.9109 18.2238 23.9671 16.9486C24.0234 15.6686 24.0375 15.2608 24.0375 12.0023C24.0375 8.7439 24.0327 8.33604 23.9765 7.05607ZM21.8152 16.8549C21.7636 18.027 21.5667 18.6599 21.4026 19.0819C20.9993 20.1274 20.1695 20.9572 19.124 21.3605C18.702 21.5246 18.0645 21.7215 16.897 21.7729C15.6311 21.8293 15.2514 21.8433 12.0492 21.8433C8.847 21.8433 8.46259 21.8293 7.2013 21.7729C6.02919 21.7215 5.39626 21.5246 4.9743 21.3605C4.454 21.1682 3.9804 20.8634 3.59598 20.4649C3.19747 20.0758 2.89272 19.6069 2.70042 19.0866C2.53633 18.6647 2.33945 18.027 2.28799 16.8596C2.23158 15.5937 2.21766 15.2139 2.21766 12.0117C2.21766 8.80946 2.23158 8.42505 2.28799 7.16394C2.33945 5.99183 2.53633 5.3589 2.70042 4.93694C2.89272 4.41645 3.19747 3.94303 3.60074 3.55843C3.98974 3.15992 4.45858 2.85517 4.97906 2.66306C5.40102 2.49896 6.03872 2.30209 7.20606 2.25044C8.47193 2.19422 8.85176 2.18011 12.0538 2.18011C15.2608 2.18011 15.6404 2.19422 16.9017 2.25044C18.0738 2.30209 18.7068 2.49896 19.1287 2.66306C19.649 2.85517 20.1226 3.15992 20.507 3.55843C20.9056 3.94761 21.2103 4.41645 21.4026 4.93694C21.5667 5.3589 21.7636 5.99641 21.8152 7.16394C21.8714 8.42981 21.8855 8.80946 21.8855 12.0117C21.8855 15.2139 21.8714 15.589 21.8152 16.8549Z" fill="#F4F4FD"/>
<path d="M12.0445 5.83703C8.6408 5.83703 5.87922 8.59844 5.87922 12.0023C5.87922 15.4062 8.6408 18.1676 12.0445 18.1676C15.4483 18.1676 18.2098 15.4062 18.2098 12.0023C18.2098 8.59844 15.4483 5.83703 12.0445 5.83703ZM12.0445 16.0016C9.83635 16.0016 8.04523 14.2106 8.04523 12.0023C8.04523 9.79398 9.83635 8.00305 12.0445 8.00305C14.2528 8.00305 16.0437 9.79398 16.0437 12.0023C16.0437 14.2106 14.2528 16.0016 12.0445 16.0016Z" fill="#F4F4FD"/>
<path d="M19.893 5.59332C19.893 6.38816 19.2485 7.03263 18.4535 7.03263C17.6587 7.03263 17.0142 6.38816 17.0142 5.59332C17.0142 4.79831 17.6587 4.15401 18.4535 4.15401C19.2485 4.15401 19.893 4.79831 19.893 5.59332Z" fill="#F4F4FD"/>
</g>
<defs>
<clipPath id="clip0_1068850_119">
<rect width="24" height="24" fill="white"/>
</clipPath>
</defs>
</svg>
